<svg width="124" height="117" viewBox="0 0 124 117" fill="none" xmlns="http://www.w3.org/2000/svg">
<g clip-path="url(#clip0_1_515)">
<path d="M120.818 0L67.7694 39.4631L77.6343 16.2064L120.818 0Z" fill="#E17726"/>
<path d="M3.04246 0.0466309L46.1112 16.2093L55.4782 39.7709L3.04246 0.0466309ZM99.4698 83.9271L122.917 84.3758L114.722 112.362L86.1118 104.443L99.4698 83.9271ZM24.2665 83.9271L37.5748 104.443L9.01251 112.363L0.867798 84.3758L24.2665 83.9271Z" fill="#E27625"/>
<path d="M54.2047 33.7693L55.1629 64.8832L26.4905 63.5718L34.6463 51.2016L34.7496 51.0827L54.2047 33.7693ZM69.2351 33.4221L88.9872 51.0836L89.0896 51.2021L97.2454 63.5723L68.5793 64.8832L69.2351 33.4221ZM38.4146 84.0174L54.0705 96.2813L35.8841 105.109L38.4146 84.0174ZM85.3251 84.0154L87.803 105.109L69.6674 96.2803L85.3251 84.0154Z" fill="#E27625"/>
<path d="M70.0677 95.1252L88.471 104.084L71.3523 112.263L71.5301 106.858L70.0677 95.1252ZM53.6638 95.1291L52.259 106.769L52.3744 112.257L35.2157 104.084L53.6638 95.1291Z" fill="#D5BFB2"/>
<path d="M48.3495 68.9443L53.1586 79.1054L36.7856 74.2832L48.3495 68.9443ZM75.3867 68.9453L87.0052 74.2832L70.5786 79.104L75.3867 68.9453Z" fill="#233447"/>
<path d="M39.6659 83.9135L37.0194 105.782L22.8341 84.3917L39.6659 83.9135ZM84.0718 83.9139L100.904 84.3917L86.6657 105.783L84.0718 83.9139ZM97.6597 62.3352L85.41 74.8866L75.9653 70.5474L71.4435 80.1045L68.4793 63.6699L97.6597 62.3352ZM26.0707 62.3352L55.257 63.6699L52.2922 80.1045L47.7695 70.5489L38.375 74.887L26.0707 62.3352Z" fill="#CC6228"/>
<path d="M25.2455 59.7596L39.1048 73.8986L39.5848 87.857L25.2455 59.7596ZM98.5054 59.7344L84.14 87.8818L84.6809 73.8986L98.5054 59.7344ZM54.5795 60.6209L55.1373 64.1507L56.5156 72.9441L55.6294 99.9515L51.4399 78.2557L51.4385 78.0314L54.5795 60.6209ZM69.1502 60.5719L72.2994 78.0314L72.2979 78.2557L68.0978 100.006L67.9317 94.5655L67.2764 72.7839L69.1502 60.5719Z" fill="#E27525"/>
<path d="M85.9129 73.3369L85.4439 85.4644L70.8235 96.9165L67.868 94.8171L71.1809 77.661L85.9129 73.3369ZM37.8748 73.3369L52.5555 77.661L55.8685 94.8171L52.9129 96.9165L38.292 85.4634L37.8748 73.3369Z" fill="#F5841F"/>
<path d="M32.418 101.406L51.123 110.316L51.0438 106.511L52.609 105.13H71.1219L72.7436 106.506L72.6238 110.309L91.2106 101.428L82.1662 108.942L71.2301 116.494H52.4588L41.53 108.911L32.418 101.406Z" fill="#C0AC9D"/>
<path d="M68.728 93.9392L71.3726 95.8177L72.9224 108.249L70.6796 106.345H53.064L50.8638 108.287L52.3628 95.8187L55.0083 93.9392H68.728Z" fill="#161616"/>
<path d="M117.316 1.09253L123.684 20.2985L119.707 39.7181L122.539 41.9141L118.707 44.8535L121.587 47.0898L117.774 50.5813L120.115 52.2859L113.901 59.5815L88.4168 52.1213L88.1961 52.0024L69.8315 36.4277L117.316 1.09253ZM6.4206 1.09253L53.9058 36.4277L35.5407 52.0024L35.32 52.1213L9.83544 59.5815L3.62199 52.2859L5.96133 50.5827L2.15 47.0898L5.02444 44.8559L1.13487 41.9083L4.07354 39.7108L0.0526123 20.2995L6.4206 1.09253Z" fill="#763E1A"/>
<path d="M87.1704 50.4898L114.173 58.3937L122.945 85.5764H99.8011L83.8546 85.7783L95.4518 63.0518L87.1704 50.4898ZM36.5665 50.4898L28.2836 63.0518L39.8823 85.7783L23.943 85.5764H0.840332L9.5636 58.3942L36.5665 50.4898ZM78.9567 16.0767L71.404 36.5848L69.8012 64.2889L69.1878 72.9726L69.1391 95.1553H54.5974L54.55 73.0143L53.9348 64.2817L52.3314 36.5848L44.7798 16.0767H78.9567Z" fill="#F5841F"/>
</g>
<defs>
<clipPath id="clip0_1_515">
<rect width="123.632" height="116.526" fill="white" transform="translate(0.0526123)"/>
</clipPath>
</defs>
</svg>
